#!OML:ASF F:\VICON\USERDATA\INSTALL\rory3\rory3.ASF
:FULLY-SPECIFIED
:DEGREES
194
root 0.7621399893200838 17.844613409556402 38.92613216633952 2.38384212440517 3.07761303392323 0.7889023649624056
lfemur -15.992600706903145 2.126140968275484 -20.74383249084051
ltibia 47.33737193494284
lfoot 1.9964738292074813 -12.0094048060743
ltoes -9.843613966999891
rfemur -25.28357076912844 4.1218456871501825 27.32080161689305
rtibia 64.05525699678635
rfoot 3.764077321964076 -4.5437257025961015
rtoes -1.7264744915370556
lowerback 14.508533768469567 0.052952208502886344 1.1492011257546688
upperback -0.7618368149086691 1.429397157055054 0.9542603866388221
thorax -9.258472757751559 0.52993262926751 0.08873014260080923
lowerneck -19.940325260495936 -4.688948398906683 -1.919631818028641
upperneck 15.354083518349373 -6.617784252508815 3.0987413173081575
head 8.366055368028874 -2.7713518652480813 0.5443944525568458
lclavicle -1.9521729781560437e-15 1.1013548979497733e-15
lhumerus -50.23348916652549 -7.305141406854351 97.5825413142301
lradius 109.3082389174265
lwrist 46.80272030294981
lhand -17.868815196901163 6.377750847181245
lfingers 7.125020000000001
lthumb 8.45722395737745 36.491788805207186
rclavicle -1.952176533109819e-15 1.1013521049827522e-15
rhumerus -47.03085648276752 15.717292428528545 -101.65648053545908
rradius 113.19499133945446
rwrist -16.011872789980686
rhand -23.96637999476731 -104.01645965255452
rfingers 7.125020000000001
rthumb 4.300300780412531 15.860268470014356
195
root 0.7691094932919622 17.87501475278698 39.647105083950024 2.4361749951766627 3.268219043813964 0.8516856580158207
lfemur -15.70358503424933 2.219065825772743 -20.860029586109512
ltibia 47.08518359741194
lfoot 1.1436206619094538 -12.42433433278811
ltoes -9.520950971967176
rfemur -21.870121480196858 4.777686911084147 28.302254129059808
rtibia 64.17383231585492
rfoot 3.471245784628586 -4.750479509564828
rtoes -1.4952796389901444
lowerback 14.46069097056279 0.007751618968753926 0.9317652730976671
upperback -0.7458028496147848 1.3386216131997868 0.9000013266872885
thorax -9.352960827337874 0.487368121439139 0.133834647310696
lowerneck -19.9727391412728 -4.728790408270823 -1.9255085282787217
upperneck 15.333037499880964 -6.620404960249215 3.055166527153713
head 8.34920780562826 -2.8006495967055343 0.5401965941702158
lclavicle -1.9521729781560437e-15 1.1013548979497733e-15
lhumerus -49.93798080936006 -7.497726819791991 97.59670570932595
lradius 109.81631180010842
lwrist 46.49278817198644
lhand -17.96383685777641 6.333814797418202
lfingers 7.125020000000001
lthumb 8.383623932818587 36.3881814922713
rclavicle -1.952176533109819e-15 1.1013521049827522e-15
rhumerus -47.12493334881726 15.752785233832062 -101.71886202974088
rradius 113.14845137330266
rwrist -15.724229185723159
rhand -24.118994774789478 -108.72004989817867
rfingers 7.125020000000001
rthumb 3.8584342389893247 15.430264662252071
196
root 0.7539580755893149 17.833753170226725 37.59111250301968 2.289870173454422 2.851137861797948 0.6106231537849971
lfemur -17.896456115329038 1.6001889045817406 -22.257345782482
ltibia 47.25287333792029
lfoot 1.219275410970705 -12.5483745610887
ltoes -8.7240094066122
rfemur -21.982090863146755 4.8797152318998585 28.38229309334215
rtibia 64.74900608567934
rfoot 2.7270989736381175 -5.048983516336825
rtoes -1.0342491372948612
lowerback 14.481874183962518 0.005450691167274868 0.858990495819884
upperback -0.7604726350083575 1.2011801895804015 0.8238000345430536
thorax -9.204296364460397 0.5558342135607137 0.40691971191205223
lowerneck -19.95951246749143 -4.702196503344455 -1.9056412485358833
upperneck 15.429060599305634 -6.576769823973527 3.0540025199442633
head 8.317875460016104 -2.838789966242695 0.5311306367475542
lclavicle -1.9521729781560437e-15 1.1013548979497733e-15
lhumerus -48.937733591359724 -7.460225595565168 97.62078717213348
lradius 110.20525158224604
lwrist 46.36327901960434
lhand -18.043822737065966 6.207607155189798
lfingers 7.125020000000001
lthumb 8.362486702989663 36.3394245324736
rclavicle -1.952176533109819e-15 1.1013521049827522e-15
rhumerus -47.19714144379271 15.766822563079057 -101.74934067374028
rradius 113.10952584157181
rwrist -15.720663277686981
rhand -23.97519975570287 -105.27882105823404
rfingers 7.125020000000001
rthumb 4.0650788947833645 16.24048372980933
197
root 0.7629403162760944 17.85793521022199 38.437385035916996 2.395467680504093 2.940697836939762 0.6672662645490195
lfemur -17.45391029473799 1.5211264697603784 -22.057308484337586
ltibia 47.766743247960875
lfoot 2.8137443322425155 -11.943834523794761
ltoes -8.236935479372407
rfemur -22.68025712945859 4.865370884882888 28.27390517446252
rtibia 64.48400274529142
rfoot 3.2030283471497345 -4.646948734460394
rtoes -0.5358351819840756
lowerback 14.57215583067339 0.021654991309364158 0.961377181697433
upperback -0.7611758059293792 1.0815394413129176 0.7923541229579468
thorax -9.350487573070833 0.4631454743074609 0.43657482707225914
lowerneck -20.067041507698537 -4.7797796428569175 -1.9322726937810923
upperneck 15.393054787715142 -6.622451577121123 2.9881892283489195
head 8.27853376704093 -2.875435031975541 0.5289007286526751
lclavicle -1.9521729781560437e-15 1.1013548979497733e-15
lhumerus -48.95975090080477 -7.937352642790506 97.50429152203479
lradius 110.45843344581083
lwrist 46.24250650698607
lhand -18.074502284037404 6.227023621113108
lfingers 7.125020000000001
lthumb 8.315405472466884 36.23831819270982
rclavicle -1.952176533109819e-15 1.1013521049827522e-15
rhumerus -47.32314449058791 15.719632326837928 -101.75500953263713
rradius 113.07752507701947
rwrist -15.818574413958245
rhand -24.13151522736713 -106.90578221572949
rfingers 7.125020000000001
rthumb 3.8010948509705624 16.19630818657828
198
root 0.747257612241218 17.81524131229007 36.203266988484195 2.2666103504194366 2.485726830248636 0.35986839992098174
lfemur -17.12346158810563 1.5816117232293552 -21.89433476635467
ltibia 48.77840699316841
lfoot 3.19275783580831 -12.301263021985783
ltoes -8.48602811205318
rfemur -22.28419856238977 4.924457916213141 28.0415229422462
rtibia 64.1814306950134
rfoot 2.8500046739736846 -4.359362980915672
rtoes -0.7494531372665543
lowerback 14.653961292360755 0.022434775137761986 1.036706992841498
upperback -0.7687163246475349 0.9509147724753002 0.7888009133475422
thorax -9.240986460862212 0.4857929166428331 0.5872212236017622
lowerneck -19.97991016922375 -4.682609675046339 -1.8865190510427818
upperneck 15.433933864132618 -6.58380306846255 2.9869896448191
head 8.259597840319554 -2.8647170892627725 0.5365656013110939
lclavicle -1.9521729781560437e-15 1.1013548979497733e-15
lhumerus -49.609339586864 -8.121389065706524 97.24043554591658
lradius 110.31930097280514
lwrist 46.565744736109224
lhand -18.124152174387852 6.300122589640286
lfingers 7.125020000000001
lthumb 8.302168824264081 36.20766981059053
rclavicle -1.952176533109819e-15 1.1013521049827522e-15
rhumerus -47.516177916249816 15.612010419449861 -101.76209365546521
rradius 113.07389360606457
rwrist -15.835038226129479
rhand -24.021333100036795 -105.24765723005544
rfingers 7.125020000000001
rthumb 4.189443233572927 17.16516550320642
199
root 0.7684711490035951 17.882145488590687 39.40099173504559 2.5152864554975958 3.1285344270155644 0.6897216164163389
lfemur -18.76514895818204 1.2786442670158589 -22.720240666892078
ltibia 50.17613597444273
lfoot 4.000349825891536 -12.28115013373548
ltoes -8.352734627301198
rfemur -23.384689408708457 4.745970946004269 28.015863760435145
rtibia 64.16796153881474
rfoot 2.3698449288604335 -4.3416007546514646
rtoes -0.9123213882149388
lowerback 14.694613356880296 0.014309887481666561 1.0679349844999626
upperback -0.7497236214091254 0.8666886354853627 0.8379273887073421
thorax -9.356941802372766 0.39411297915441995 0.5287826995435055
lowerneck -20.075176165165775 -4.784091620420396 -1.9184524864861765
upperneck 15.454719921214732 -6.576501896232453 2.9596165685474527
head 8.227042249344336 -2.88023131184497 0.5274141648880074
lclavicle -1.9521729781560437e-15 1.1013548979497733e-15
lhumerus -49.984164652844186 -8.35992492291862 97.13769032141563
lradius 110.9730409411994
lwrist 46.46596420009797
lhand -18.248079633830198 6.299360927328567
lfingers 7.125020000000001
lthumb 8.22550750209939 36.217118886871
rclavicle -1.952176533109819e-15 1.1013521049827522e-15
rhumerus -47.783621802193345 15.460130245386942 -101.8077275870721
rradius 113.18809526038942
rwrist -15.892526540190357
rhand -24.23678277882339 -107.72779047754528
rfingers 7.125020000000001
rthumb 3.6626086698515916 16.38112642456057
200
root 0.765590242643451 17.882236356947484 38.73649902498515 2.424179345458435 3.0334311650438224 0.6748022856009659
lfemur -16.797970048078252 1.5952022213287778 -22.030498461448317
ltibia 51.703452418937275
lfoot 2.324349509436257 -12.761068107076138
ltoes -8.204529125711952
rfemur -26.8546199470907 4.133677472823026 26.839099513463726
rtibia 65.1542027372741
rfoot 1.752842845764095 -4.619856497075424
rtoes -1.305434262311482
lowerback 14.616188100789973 -0.058309303696840065 0.8905010387417243
upperback -0.7024312837523526 0.8939933590561077 0.929771644987738
thorax -9.430692913882872 0.28348818876583537 0.3749049683162322
lowerneck -20.06703987000619 -4.8133918104828135 -1.8999944564538094
upperneck 15.544649744882857 -6.510962095073516 2.9809996673834505
head 8.225552354189661 -2.876009449264221 0.5291194476145942
lclavicle -1.9521729781560437e-15 1.1013548979497733e-15
lhumerus -49.636016948567416 -8.111826447876329 97.30090185516579
lradius 111.39565605913397
lwrist 46.54957903854607
lhand -18.221425291584236 6.443188117732941
lfingers 7.125020000000001
lthumb 8.198102454349689 36.261141751229374
rclavicle -1.952176533109819e-15 1.1013521049827522e-15
rhumerus -48.04806410800484 15.309910638511306 -101.87026627007822
rradius 113.3882969217487
rwrist -15.858309303124903
rhand -24.24835777508322 -106.9664252887811
rfingers 7.125020000000001
rthumb 3.88287391678287 16.689420288871997
